<svg width="255" height="45" viewBox="0 0 255 45" fill="none" xmlns="http://www.w3.org/2000/svg">
<g clip-path="url(#clip0_497_54)" filter="url(#filter0_i_497_54)">
<path d="M144.143 43.1831C144.01 43.3722 143.84 43.5341 143.641 43.6595C143.443 43.785 143.221 43.8715 142.987 43.914C141.605 44.1602 140.184 44.1318 138.814 43.8305C138.689 43.8305 138.564 43.7783 138.439 43.7469C136.513 43.236 134.789 42.1834 133.489 40.724C132.825 40.0101 132.228 39.2414 131.704 38.4267C130.705 36.8218 129.88 35.1231 129.239 33.3571C128.094 30.8141 127.395 28.1059 127.172 25.3428C127.029 23.1533 127.369 20.9594 128.17 18.9053C128.425 18.2613 128.726 17.635 129.071 17.031C129.264 16.6814 129.534 16.376 129.86 16.1354C130.187 15.8949 130.564 15.7249 130.965 15.637C133.828 18.1908 135.871 21.4788 136.854 25.1131C138.998 33.023 137.864 40.2541 142.179 42.1806C142.852 42.4796 143.508 42.8142 144.143 43.1831Z" fill="#551E00"/>
<path d="M146.618 18.0021C146.578 18.1744 146.547 18.3487 146.526 18.5242C146.179 21.0721 143.384 24.8416 140.556 27.2903L140.143 27.6401C140.143 27.3895 140.1 27.1493 140.073 26.9092L140.024 26.4967C139.535 22.7532 138.081 18.4929 136.295 16.8691C135.969 16.581 135.686 16.2507 135.454 15.8876C135.341 15.7063 135.271 15.5037 135.247 15.2936C135.224 15.0836 135.248 14.8712 135.318 14.6711C135.391 14.4134 135.549 14.1854 135.768 14.0216C135.988 13.8577 136.256 13.7668 136.534 13.7626H136.757C139.855 13.7924 142.848 14.8511 145.229 16.7595C145.718 17.146 146.182 17.5609 146.618 18.0021Z" fill="#551E00"/>
<path d="M146.7 40.2541C146.314 40.0139 145.951 39.7685 145.614 39.5179C145.903 39.2448 146.168 38.9497 146.407 38.6356C147.704 36.8656 151.335 31.8482 151.471 25.6665C151.829 26.5593 152.089 27.3112 152.263 27.828C153.332 30.9868 153.549 44.5405 146.7 40.2541Z" fill="#551E00"/>
<path opacity="0.14" d="M139.145 26.9666L139.177 27.2328C134.51 31.2113 132.577 32.1041 131.834 37.9777C131.818 38.1312 131.781 38.2821 131.725 38.4267C130.727 36.8218 129.901 35.1231 129.261 33.3571C128.116 30.8141 127.417 28.1059 127.193 25.3428C127.868 23.8886 128.669 22.4914 129.587 21.166C130.647 19.3959 131.922 17.7537 133.386 16.2739L133.533 16.4045C135.97 18.7905 138.618 22.3721 139.145 26.9666Z" fill="#F3DEBA"/>
<path opacity="0.14" d="M144.187 40.7762C142.588 42.0703 140.78 43.1055 138.835 43.8409C138.711 43.8409 138.586 43.7887 138.461 43.7574C136.535 43.2465 134.811 42.1939 133.511 40.7344C133.511 40.6248 133.511 40.5099 133.511 40.3951C133.278 33.1587 136.578 30.5012 139.308 28.3345C139.937 34.464 139.666 36.6516 143.899 40.4368C144.008 40.5393 144.104 40.6532 144.187 40.7762Z" fill="#A9907E"/>
<path d="M151.471 25.6613C151.335 31.8326 147.704 36.8604 146.407 38.6303C146.168 38.9445 145.903 39.2396 145.614 39.5127C140.295 35.6491 140.426 31.159 140.138 27.6505L140.55 27.3007C143.384 24.8521 146.179 21.0825 146.521 18.5346C146.542 18.3591 146.572 18.1848 146.613 18.0125C148.735 20.233 150.385 22.8314 151.471 25.6613Z" fill="#551E00"/>
<path opacity="0.14" d="M151.405 25.5935C151.275 31.7647 147.644 36.7925 146.342 38.5625C146.103 38.8755 145.84 39.1705 145.555 39.4448C140.23 35.5813 140.366 31.0912 140.073 27.5827L140.485 27.2328C143.318 24.7842 146.114 21.0146 146.455 18.4667C146.483 18.2736 146.515 18.1013 146.553 17.9446C148.671 20.1674 150.319 22.7653 151.405 25.5935Z" fill="#F3DEBA"/>
<path d="M144.143 43.1831C143.326 43.2325 142.509 43.0778 141.772 42.7341C140.87 42.274 140.133 41.5648 139.655 40.6979C137.603 37.2781 138.721 31.6968 136.833 25.1131C136.471 23.8057 135.981 22.5347 135.367 21.3174C134.266 19.1852 132.775 17.2611 130.965 15.637C131.392 15.5478 131.835 15.5592 132.257 15.6701C132.678 15.781 133.066 15.9882 133.386 16.2739L133.527 16.4045C135.948 18.7905 138.597 22.3721 139.123 26.9666L139.156 27.2329C139.199 27.6088 139.237 27.9742 139.27 28.3241C139.899 34.4535 139.628 36.6411 143.861 40.4264C143.976 40.528 144.078 40.6419 144.165 40.7658C144.412 41.1252 144.541 41.547 144.537 41.9776C144.533 42.4081 144.396 42.8278 144.143 43.1831Z" fill="#3A1300"/>
<path d="M0 3.44586C3.35053 2.84828 6.75271 2.55981 10.1603 2.58439C15.7234 2.58439 19.3002 3.50329 21.9868 5.59692C24.2229 7.19455 25.5635 9.65365 25.5635 12.9064C25.5635 16.9004 22.8172 20.409 18.2798 22.0066V22.1267C22.3667 23.1135 27.1646 26.3714 27.1646 32.5165C27.1895 34.068 26.8781 35.6076 26.2501 37.0369C25.6222 38.4662 24.6914 39.7539 23.5173 40.8179C20.5159 43.4598 15.6583 44.6919 8.62966 44.6919C5.74497 44.7122 2.86211 44.5483 0 44.2012V3.44586ZM5.56318 20.4142H10.6107C16.4887 20.4142 19.9406 17.4591 19.9406 13.465C19.9406 8.60945 16.1033 6.70378 10.4805 6.70378C8.83265 6.66273 7.18488 6.7852 5.56318 7.06925V20.4142ZM5.56318 40.2541C7.10823 40.4527 8.66704 40.5347 10.2254 40.4995C15.9785 40.4995 21.2812 38.4737 21.2812 32.4486C21.2812 26.789 16.2336 24.4553 10.1603 24.4553H5.56318V40.2541Z" fill="#ABC4AA"/>
<path d="M34.4483 23.8549C34.4483 20.3515 34.3832 17.339 34.1932 14.5719H39.1105L39.3005 20.4142H39.561C40.9668 16.4149 44.3535 13.8931 48.1201 13.8931C48.6693 13.8835 49.2172 13.9467 49.7484 14.0811V19.182C49.1188 19.0526 48.4763 18.9913 47.8325 18.9993C43.8705 18.9993 41.0536 21.8865 40.2883 25.9433C40.1326 26.7758 40.0473 27.6192 40.0332 28.465V44.3265H34.4754L34.4483 23.8549Z" fill="#ABC4AA"/>
<path d="M82.6987 29.2012C82.6987 40.2071 74.7745 45.0052 67.2954 45.0052C58.9208 45.0052 52.4675 39.1003 52.4675 29.6972C52.4675 19.7355 59.241 13.8932 67.8056 13.8932C76.6904 13.8932 82.6987 20.1062 82.6987 29.2012ZM58.1555 29.5092C58.1555 36.0303 62.0525 40.9485 67.5506 40.9485C72.9184 40.9485 76.9456 36.0877 76.9456 29.3892C76.9456 24.3456 74.3241 17.9551 67.6808 17.9551C61.0376 17.9551 58.1555 23.8549 58.1555 29.5092Z" fill="#ABC4AA"/>
<path d="M119.589 41.1521C119.733 41.6786 119.661 42.2381 119.388 42.7151C119.116 43.1921 118.663 43.5502 118.124 43.7156C115.066 44.573 111.893 44.99 108.707 44.953C96.5661 44.953 87.4261 37.5757 87.4261 23.9906C87.4261 11.0164 96.5661 2.22416 109.923 2.22416C112.703 2.17904 115.473 2.53992 118.14 3.29447C118.685 3.46514 119.14 3.83284 119.408 4.31993C119.677 4.80702 119.738 5.37538 119.579 5.90498L119.486 6.20258C119.403 6.47309 119.264 6.72486 119.078 6.94321C118.892 7.16155 118.663 7.34209 118.404 7.47429C118.145 7.6065 117.861 7.6877 117.568 7.71318C117.276 7.73866 116.982 7.7079 116.702 7.6227C114.567 6.99498 112.345 6.68337 110.113 6.69857C100.018 6.69857 93.2878 12.9064 93.2878 23.787C93.2878 33.9314 99.3612 40.4473 109.842 40.4473C112.171 40.4508 114.489 40.1415 116.729 39.5284C117.015 39.4418 117.316 39.412 117.614 39.4406C117.912 39.4692 118.201 39.5556 118.463 39.6947C118.726 39.8338 118.956 40.0227 119.14 40.2498C119.324 40.477 119.459 40.7378 119.535 41.0164L119.589 41.1521Z" fill="#ABC4AA"/>
<path d="M180.35 44.3265V18.6913H167.373V44.3265H161.815V18.6913H157.473V14.5719H161.815V13.5903C161.815 9.41352 162.836 5.7588 165.267 3.44589C167.053 1.72295 169.609 0.678747 173.061 0.678747C174.596 0.693937 176.107 1.05137 177.474 1.72295L176.323 5.71704C175.279 5.25206 174.146 5.00134 172.996 4.98087C168.589 4.98087 167.373 8.60948 167.373 13.2823V14.5719H180.35V13.157C180.35 8.98018 181.371 5.16361 183.992 2.76716C186.017 0.948752 188.696 -0.0432083 191.466 1.25504e-05C193.108 -0.0102703 194.736 0.282163 196.264 0.861486L195.558 5.03831C194.409 4.56237 193.167 4.33084 191.916 4.35957C187.184 4.35957 185.908 8.4163 185.908 12.969V14.5667H193.387V18.6861H185.973V44.3213L180.35 44.3265Z" fill="#ABC4AA"/>
<path d="M200.796 30.4334C200.926 37.7428 205.783 40.7605 211.406 40.7605C215.434 40.7605 217.86 40.087 219.971 39.2256L220.932 43.0996C218.951 43.961 215.558 44.9426 210.619 44.9426C201.094 44.9426 195.422 38.9175 195.422 29.9426C195.422 20.9676 200.92 13.8932 209.93 13.8932C220.031 13.8932 222.712 22.44 222.712 27.9116C222.703 28.7552 222.64 29.5974 222.522 30.4334H200.796ZM217.284 26.5594C217.349 23.1187 215.819 17.7671 209.49 17.7671C203.802 17.7671 201.311 22.8107 200.861 26.5594H217.284Z" fill="#ABC4AA"/>
<path d="M249.529 30.4334C249.399 37.7428 244.449 40.7605 238.712 40.7605C234.609 40.7605 232.134 40.087 229.985 39.2256L229.008 43.0996C231.027 43.961 234.479 44.9426 239.494 44.9426C249.203 44.9426 255 38.9175 255 29.9426C255 20.9676 249.399 13.8932 240.21 13.8932C229.898 13.8932 227.184 22.44 227.184 27.9116C227.194 28.7553 227.259 29.5976 227.379 30.4334H249.529ZM232.704 26.5594C232.639 23.1187 234.202 17.7671 240.65 17.7671C246.452 17.7671 248.992 22.8107 249.448 26.5594H232.704Z" fill="#ABC4AA"/>
</g>
<defs>
<filter id="filter0_i_497_54" x="0" y="0" width="255" height="49" filterUnits="userSpaceOnUse" color-interpolation-filters="sRGB">
<feFlood flood-opacity="0" result="BackgroundImageFix"/>
<feBlend mode="normal" in="SourceGraphic" in2="BackgroundImageFix" result="shape"/>
<feColorMatrix in="SourceAlpha" type="matrix" values="0 0 0 0 0 0 0 0 0 0 0 0 0 0 0 0 0 0 127 0" result="hardAlpha"/>
<feOffset dy="4"/>
<feGaussianBlur stdDeviation="2"/>
<feComposite in2="hardAlpha" operator="arithmetic" k2="-1" k3="1"/>
<feColorMatrix type="matrix" values="0 0 0 0 0 0 0 0 0 0 0 0 0 0 0 0 0 0 0.25 0"/>
<feBlend mode="normal" in2="shape" result="effect1_innerShadow_497_54"/>
</filter>
<clipPath id="clip0_497_54">
<rect width="255" height="45" fill="white"/>
</clipPath>
</defs>
</svg>
